<?xml version="1.0" standalone="no"?>
<!DOCTYPE svg PUBLIC "-//W3C//DTD SVG 20010904//EN"
 "http://www.w3.org/TR/2001/REC-SVG-20010904/DTD/svg10.dtd">
<svg version="1.0" xmlns="http://www.w3.org/2000/svg"
 width="512.000000pt" height="512.000000pt" viewBox="0 0 512.000000 512.000000"
 preserveAspectRatio="xMidYMid meet">

<g transform="translate(0.000000,512.000000) scale(0.100000,-0.100000)"
fill="#000000" stroke="none">
<path d="M2675 4639 c-455 -43 -887 -270 -1128 -594 -200 -267 -272 -613 -192
-916 14 -51 13 -53 -11 -83 -25 -32 -29 -36 -62 -66 -17 -15 -21 -36 -27 -156
-9 -161 1 -427 16 -456 9 -16 18 -19 45 -15 19 3 34 2 34 -1 0 -4 14 -16 31
-26 24 -14 42 -17 79 -12 l47 6 6 -60 c9 -79 47 -192 105 -310 81 -166 184
-247 437 -348 151 -60 245 -80 456 -98 l66 -5 28 -90 c24 -79 27 -102 23 -195
-3 -87 -7 -107 -21 -115 -9 -6 -17 -17 -17 -24 0 -9 -9 -15 -22 -15 -13 0 -43
-7 -68 -15 -25 -8 -106 -33 -180 -56 -236 -72 -366 -126 -492 -205 -22 -14
-44 -22 -48 -17 -4 4 -58 161 -119 348 -61 187 -243 738 -404 1224 l-293 884
-241 135 c-133 74 -245 132 -250 129 -4 -3 -55 -97 -112 -209 l-104 -203 171
-545 c382 -1223 632 -2027 632 -2036 1 -12 23 -28 162 -112 267 -162 539 -270
818 -326 218 -44 295 -51 530 -50 195 0 247 4 394 28 173 28 331 69 491 127
134 49 389 180 516 265 120 81 249 180 249 192 0 4 -46 34 -103 67 -92 54
-147 83 -381 202 -96 49 -304 124 -408 147 -22 5 -29 14 -35 44 -10 50 -10
248 1 348 l9 82 56 6 c174 19 339 79 458 167 82 61 136 120 193 214 23 39 68
97 99 130 64 69 119 168 150 270 25 82 81 195 97 195 6 0 21 11 33 24 20 21
24 40 33 169 12 178 -2 405 -27 443 -13 21 -14 34 -6 77 67 349 -67 733 -351
1002 -339 323 -842 483 -1363 434z m420 -120 c354 -43 685 -204 916 -445 36
-38 81 -91 99 -119 l34 -50 -64 58 c-126 113 -358 256 -508 313 -35 13 -75 30
-90 38 -26 14 -202 63 -307 85 -149 31 -426 42 -551 21 -85 -14 -238 -49 -314
-71 -36 -10 -94 -26 -129 -35 -117 -29 -189 -69 -294 -162 -148 -131 -263
-244 -308 -304 -69 -94 -80 -95 -31 -4 195 360 611 616 1107 679 68 9 356 6
440 -4z m-1635 -1302 c6 -33 9 -61 7 -64 -11 -11 -29 110 -32 217 l-4 115 9
-105 c5 -58 14 -131 20 -163z m1374 126 c59 -119 116 -273 132 -358 20 -102
30 -340 15 -349 -20 -13 -12 -46 15 -58 25 -12 29 -9 75 41 66 71 80 67 94
-29 18 -123 54 -166 162 -191 62 -14 88 -8 139 31 52 41 63 70 64 161 l0 77
35 6 c27 5 45 19 75 59 35 45 79 100 137 171 9 11 33 52 55 93 l40 73 21 -27
c39 -54 81 -93 97 -93 15 0 16 -16 12 -137 -5 -171 12 -278 62 -376 26 -51 33
-74 27 -90 -5 -12 -12 -47 -16 -77 -9 -70 -37 -172 -63 -228 -59 -131 -362
-200 -702 -160 -126 14 -161 13 -198 -6 -42 -22 -41 -50 1 -77 38 -24 126 -22
155 4 15 14 39 15 177 10 178 -6 291 8 409 51 36 13 66 20 66 16 0 -17 -87
-104 -144 -144 -137 -98 -265 -139 -490 -158 -182 -15 -663 -16 -826 -1 -167
16 -251 36 -408 101 -265 109 -327 170 -427 420 -32 82 -37 107 -42 205 -5 95
-2 126 16 200 13 49 24 128 25 178 3 74 7 94 24 112 11 12 23 38 27 57 19 98
100 330 115 330 4 0 15 -26 23 -57 17 -63 32 -113 70 -238 21 -70 27 -80 49
-83 22 -3 25 -8 24 -42 -1 -39 33 -90 59 -90 8 0 14 -23 18 -59 2 -32 14 -79
25 -104 36 -82 153 -135 236 -107 45 14 103 79 111 124 l7 34 67 -35 c112 -58
286 -82 351 -48 31 16 40 48 17 62 -24 16 -58 149 -79 312 -19 153 -20 179 -9
341 12 172 20 240 27 240 2 0 24 -39 48 -87z m-2123 -50 l209 -107 86 -266
c717 -2211 740 -2285 725 -2294 -9 -5 -71 -56 -138 -113 -66 -57 -129 -103
-140 -103 -21 0 -322 66 -327 71 -2 2 -99 310 -215 684 -117 374 -227 727
-246 785 -18 58 -65 206 -104 330 -38 124 -108 348 -155 499 -47 151 -86 281
-86 289 0 14 171 332 179 332 2 0 98 -48 212 -107z m1439 -260 c7 -31 21 -76
31 -101 11 -24 19 -48 19 -53 0 -5 -22 -9 -50 -9 -27 0 -72 -9 -100 -20 -64
-25 -68 -25 -43 3 36 38 80 120 99 180 10 31 21 57 24 57 4 0 13 -26 20 -57z
m1239 -108 l19 -40 -26 -6 c-52 -12 -135 -10 -129 4 3 6 23 54 44 105 l38 93
17 -58 c10 -32 26 -76 37 -98z m801 -649 c-22 -66 -60 -140 -67 -132 -3 3 0
19 6 37 6 18 11 58 11 89 0 31 2 59 5 62 3 2 18 3 34 0 l29 -4 -18 -52z m-964
-828 c-3 -29 -8 -105 -11 -168 -6 -129 -22 -225 -39 -239 -46 -38 -350 -59
-451 -31 l-46 13 8 61 c15 114 8 275 -14 343 l-21 63 157 3 c86 1 216 4 290 5
l134 2 -7 -52z m-686 -840 c0 -7 -13 -38 -28 -68 l-27 -55 -175 -82 c-96 -45
-179 -83 -184 -83 -4 0 0 12 9 27 10 14 27 42 38 61 l21 35 -60 -7 c-32 -3
-81 -9 -109 -12 l-50 -6 54 56 c30 30 53 57 50 60 -2 2 -40 14 -84 26 -169 45
-170 45 65 50 437 11 480 11 480 -2z"/>
<path d="M2953 2013 c-25 -52 -52 -54 -105 -9 -44 38 -75 46 -85 20 -7 -18 27
-56 75 -86 62 -38 157 -8 183 59 12 32 1 53 -26 53 -17 0 -28 -10 -42 -37z"/>
</g>
</svg>
